<mxfile host="app.diagrams.net" agent="Mozilla/5.0 (Windows NT 10.0; Win64; x64) AppleWebKit/537.36 (KHTML, like Gecko) Chrome/132.0.0.0 Safari/537.36 OPR/117.0.0.0" version="26.1.0">
  <diagram name="Page-1" id="KmHJZ1ah64XftBgL_oXk">
    <mxGraphModel dx="2030" dy="1113" grid="1" gridSize="10" guides="1" tooltips="1" connect="1" arrows="1" fold="1" page="1" pageScale="1" pageWidth="850" pageHeight="1100" math="0" shadow="0">
      <root>
        <mxCell id="0" />
        <mxCell id="1" parent="0" />
        <mxCell id="Jy0EAikK4nVlXM4b6_sr-1" value="EXERCISE_PROGRAM" style="shape=table;startSize=25;container=1;collapsible=0;childLayout=tableLayout;fixedRows=1;rowLines=1;fontStyle=1;align=center;resizeLast=1;" vertex="1" parent="1">
          <mxGeometry x="290" y="20" width="256" height="333" as="geometry" />
        </mxCell>
        <mxCell id="Jy0EAikK4nVlXM4b6_sr-2" style="shape=tableRow;horizontal=0;startSize=0;swimlaneHead=0;swimlaneBody=0;fillColor=none;collapsible=0;dropTarget=0;points=[[0,0.5],[1,0.5]];portConstraint=eastwest;top=0;left=0;right=0;bottom=0;" vertex="1" parent="Jy0EAikK4nVlXM4b6_sr-1">
          <mxGeometry y="25" width="256" height="22" as="geometry" />
        </mxCell>
        <mxCell id="Jy0EAikK4nVlXM4b6_sr-3" value="GUID" style="shape=partialRectangle;connectable=0;fillColor=none;top=0;left=0;bottom=0;right=0;align=left;spacingLeft=2;overflow=hidden;fontSize=11;" vertex="1" parent="Jy0EAikK4nVlXM4b6_sr-2">
          <mxGeometry width="36" height="22" as="geometry">
            <mxRectangle width="36" height="22" as="alternateBounds" />
          </mxGeometry>
        </mxCell>
        <mxCell id="Jy0EAikK4nVlXM4b6_sr-4" value="Id" style="shape=partialRectangle;connectable=0;fillColor=none;top=0;left=0;bottom=0;right=0;align=left;spacingLeft=2;overflow=hidden;fontSize=11;" vertex="1" parent="Jy0EAikK4nVlXM4b6_sr-2">
          <mxGeometry x="36" width="72" height="22" as="geometry">
            <mxRectangle width="72" height="22" as="alternateBounds" />
          </mxGeometry>
        </mxCell>
        <mxCell id="Jy0EAikK4nVlXM4b6_sr-5" value="PK" style="shape=partialRectangle;connectable=0;fillColor=none;top=0;left=0;bottom=0;right=0;align=left;spacingLeft=2;overflow=hidden;fontSize=11;" vertex="1" parent="Jy0EAikK4nVlXM4b6_sr-2">
          <mxGeometry x="108" width="22" height="22" as="geometry">
            <mxRectangle width="22" height="22" as="alternateBounds" />
          </mxGeometry>
        </mxCell>
        <mxCell id="Jy0EAikK4nVlXM4b6_sr-6" value="" style="shape=partialRectangle;connectable=0;fillColor=none;top=0;left=0;bottom=0;right=0;align=left;spacingLeft=2;overflow=hidden;fontSize=11;" vertex="1" parent="Jy0EAikK4nVlXM4b6_sr-2">
          <mxGeometry x="130" width="126" height="22" as="geometry">
            <mxRectangle width="126" height="22" as="alternateBounds" />
          </mxGeometry>
        </mxCell>
        <mxCell id="Jy0EAikK4nVlXM4b6_sr-7" style="shape=tableRow;horizontal=0;startSize=0;swimlaneHead=0;swimlaneBody=0;fillColor=none;collapsible=0;dropTarget=0;points=[[0,0.5],[1,0.5]];portConstraint=eastwest;top=0;left=0;right=0;bottom=0;" vertex="1" parent="Jy0EAikK4nVlXM4b6_sr-1">
          <mxGeometry y="47" width="256" height="22" as="geometry" />
        </mxCell>
        <mxCell id="Jy0EAikK4nVlXM4b6_sr-8" value="INT" style="shape=partialRectangle;connectable=0;fillColor=none;top=0;left=0;bottom=0;right=0;align=left;spacingLeft=2;overflow=hidden;fontSize=11;" vertex="1" parent="Jy0EAikK4nVlXM4b6_sr-7">
          <mxGeometry width="36" height="22" as="geometry">
            <mxRectangle width="36" height="22" as="alternateBounds" />
          </mxGeometry>
        </mxCell>
        <mxCell id="Jy0EAikK4nVlXM4b6_sr-9" value="Week" style="shape=partialRectangle;connectable=0;fillColor=none;top=0;left=0;bottom=0;right=0;align=left;spacingLeft=2;overflow=hidden;fontSize=11;" vertex="1" parent="Jy0EAikK4nVlXM4b6_sr-7">
          <mxGeometry x="36" width="72" height="22" as="geometry">
            <mxRectangle width="72" height="22" as="alternateBounds" />
          </mxGeometry>
        </mxCell>
        <mxCell id="Jy0EAikK4nVlXM4b6_sr-10" value="" style="shape=partialRectangle;connectable=0;fillColor=none;top=0;left=0;bottom=0;right=0;align=left;spacingLeft=2;overflow=hidden;fontSize=11;" vertex="1" parent="Jy0EAikK4nVlXM4b6_sr-7">
          <mxGeometry x="108" width="22" height="22" as="geometry">
            <mxRectangle width="22" height="22" as="alternateBounds" />
          </mxGeometry>
        </mxCell>
        <mxCell id="Jy0EAikK4nVlXM4b6_sr-11" value="" style="shape=partialRectangle;connectable=0;fillColor=none;top=0;left=0;bottom=0;right=0;align=left;spacingLeft=2;overflow=hidden;fontSize=11;" vertex="1" parent="Jy0EAikK4nVlXM4b6_sr-7">
          <mxGeometry x="130" width="126" height="22" as="geometry">
            <mxRectangle width="126" height="22" as="alternateBounds" />
          </mxGeometry>
        </mxCell>
        <mxCell id="Jy0EAikK4nVlXM4b6_sr-12" style="shape=tableRow;horizontal=0;startSize=0;swimlaneHead=0;swimlaneBody=0;fillColor=none;collapsible=0;dropTarget=0;points=[[0,0.5],[1,0.5]];portConstraint=eastwest;top=0;left=0;right=0;bottom=0;" vertex="1" parent="Jy0EAikK4nVlXM4b6_sr-1">
          <mxGeometry y="69" width="256" height="22" as="geometry" />
        </mxCell>
        <mxCell id="Jy0EAikK4nVlXM4b6_sr-13" value="INT" style="shape=partialRectangle;connectable=0;fillColor=none;top=0;left=0;bottom=0;right=0;align=left;spacingLeft=2;overflow=hidden;fontSize=11;" vertex="1" parent="Jy0EAikK4nVlXM4b6_sr-12">
          <mxGeometry width="36" height="22" as="geometry">
            <mxRectangle width="36" height="22" as="alternateBounds" />
          </mxGeometry>
        </mxCell>
        <mxCell id="Jy0EAikK4nVlXM4b6_sr-14" value="Day" style="shape=partialRectangle;connectable=0;fillColor=none;top=0;left=0;bottom=0;right=0;align=left;spacingLeft=2;overflow=hidden;fontSize=11;" vertex="1" parent="Jy0EAikK4nVlXM4b6_sr-12">
          <mxGeometry x="36" width="72" height="22" as="geometry">
            <mxRectangle width="72" height="22" as="alternateBounds" />
          </mxGeometry>
        </mxCell>
        <mxCell id="Jy0EAikK4nVlXM4b6_sr-15" value="" style="shape=partialRectangle;connectable=0;fillColor=none;top=0;left=0;bottom=0;right=0;align=left;spacingLeft=2;overflow=hidden;fontSize=11;" vertex="1" parent="Jy0EAikK4nVlXM4b6_sr-12">
          <mxGeometry x="108" width="22" height="22" as="geometry">
            <mxRectangle width="22" height="22" as="alternateBounds" />
          </mxGeometry>
        </mxCell>
        <mxCell id="Jy0EAikK4nVlXM4b6_sr-16" value="" style="shape=partialRectangle;connectable=0;fillColor=none;top=0;left=0;bottom=0;right=0;align=left;spacingLeft=2;overflow=hidden;fontSize=11;" vertex="1" parent="Jy0EAikK4nVlXM4b6_sr-12">
          <mxGeometry x="130" width="126" height="22" as="geometry">
            <mxRectangle width="126" height="22" as="alternateBounds" />
          </mxGeometry>
        </mxCell>
        <mxCell id="Jy0EAikK4nVlXM4b6_sr-17" style="shape=tableRow;horizontal=0;startSize=0;swimlaneHead=0;swimlaneBody=0;fillColor=none;collapsible=0;dropTarget=0;points=[[0,0.5],[1,0.5]];portConstraint=eastwest;top=0;left=0;right=0;bottom=0;" vertex="1" parent="Jy0EAikK4nVlXM4b6_sr-1">
          <mxGeometry y="91" width="256" height="22" as="geometry" />
        </mxCell>
        <mxCell id="Jy0EAikK4nVlXM4b6_sr-18" value="STRING" style="shape=partialRectangle;connectable=0;fillColor=none;top=0;left=0;bottom=0;right=0;align=left;spacingLeft=2;overflow=hidden;fontSize=11;" vertex="1" parent="Jy0EAikK4nVlXM4b6_sr-17">
          <mxGeometry width="36" height="22" as="geometry">
            <mxRectangle width="36" height="22" as="alternateBounds" />
          </mxGeometry>
        </mxCell>
        <mxCell id="Jy0EAikK4nVlXM4b6_sr-19" value="Split" style="shape=partialRectangle;connectable=0;fillColor=none;top=0;left=0;bottom=0;right=0;align=left;spacingLeft=2;overflow=hidden;fontSize=11;" vertex="1" parent="Jy0EAikK4nVlXM4b6_sr-17">
          <mxGeometry x="36" width="72" height="22" as="geometry">
            <mxRectangle width="72" height="22" as="alternateBounds" />
          </mxGeometry>
        </mxCell>
        <mxCell id="Jy0EAikK4nVlXM4b6_sr-20" value="" style="shape=partialRectangle;connectable=0;fillColor=none;top=0;left=0;bottom=0;right=0;align=left;spacingLeft=2;overflow=hidden;fontSize=11;" vertex="1" parent="Jy0EAikK4nVlXM4b6_sr-17">
          <mxGeometry x="108" width="22" height="22" as="geometry">
            <mxRectangle width="22" height="22" as="alternateBounds" />
          </mxGeometry>
        </mxCell>
        <mxCell id="Jy0EAikK4nVlXM4b6_sr-21" value="Upper/Lower/Push-Pull" style="shape=partialRectangle;connectable=0;fillColor=none;top=0;left=0;bottom=0;right=0;align=left;spacingLeft=2;overflow=hidden;fontSize=11;" vertex="1" parent="Jy0EAikK4nVlXM4b6_sr-17">
          <mxGeometry x="130" width="126" height="22" as="geometry">
            <mxRectangle width="126" height="22" as="alternateBounds" />
          </mxGeometry>
        </mxCell>
        <mxCell id="Jy0EAikK4nVlXM4b6_sr-22" style="shape=tableRow;horizontal=0;startSize=0;swimlaneHead=0;swimlaneBody=0;fillColor=none;collapsible=0;dropTarget=0;points=[[0,0.5],[1,0.5]];portConstraint=eastwest;top=0;left=0;right=0;bottom=0;" vertex="1" parent="Jy0EAikK4nVlXM4b6_sr-1">
          <mxGeometry y="113" width="256" height="22" as="geometry" />
        </mxCell>
        <mxCell id="Jy0EAikK4nVlXM4b6_sr-23" value="STRING" style="shape=partialRectangle;connectable=0;fillColor=none;top=0;left=0;bottom=0;right=0;align=left;spacingLeft=2;overflow=hidden;fontSize=11;" vertex="1" parent="Jy0EAikK4nVlXM4b6_sr-22">
          <mxGeometry width="36" height="22" as="geometry">
            <mxRectangle width="36" height="22" as="alternateBounds" />
          </mxGeometry>
        </mxCell>
        <mxCell id="Jy0EAikK4nVlXM4b6_sr-24" value="SetType" style="shape=partialRectangle;connectable=0;fillColor=none;top=0;left=0;bottom=0;right=0;align=left;spacingLeft=2;overflow=hidden;fontSize=11;" vertex="1" parent="Jy0EAikK4nVlXM4b6_sr-22">
          <mxGeometry x="36" width="72" height="22" as="geometry">
            <mxRectangle width="72" height="22" as="alternateBounds" />
          </mxGeometry>
        </mxCell>
        <mxCell id="Jy0EAikK4nVlXM4b6_sr-25" value="" style="shape=partialRectangle;connectable=0;fillColor=none;top=0;left=0;bottom=0;right=0;align=left;spacingLeft=2;overflow=hidden;fontSize=11;" vertex="1" parent="Jy0EAikK4nVlXM4b6_sr-22">
          <mxGeometry x="108" width="22" height="22" as="geometry">
            <mxRectangle width="22" height="22" as="alternateBounds" />
          </mxGeometry>
        </mxCell>
        <mxCell id="Jy0EAikK4nVlXM4b6_sr-26" value="Strength/Hypertrophy" style="shape=partialRectangle;connectable=0;fillColor=none;top=0;left=0;bottom=0;right=0;align=left;spacingLeft=2;overflow=hidden;fontSize=11;" vertex="1" parent="Jy0EAikK4nVlXM4b6_sr-22">
          <mxGeometry x="130" width="126" height="22" as="geometry">
            <mxRectangle width="126" height="22" as="alternateBounds" />
          </mxGeometry>
        </mxCell>
        <mxCell id="Jy0EAikK4nVlXM4b6_sr-27" style="shape=tableRow;horizontal=0;startSize=0;swimlaneHead=0;swimlaneBody=0;fillColor=none;collapsible=0;dropTarget=0;points=[[0,0.5],[1,0.5]];portConstraint=eastwest;top=0;left=0;right=0;bottom=0;" vertex="1" parent="Jy0EAikK4nVlXM4b6_sr-1">
          <mxGeometry y="135" width="256" height="22" as="geometry" />
        </mxCell>
        <mxCell id="Jy0EAikK4nVlXM4b6_sr-28" value="INT" style="shape=partialRectangle;connectable=0;fillColor=none;top=0;left=0;bottom=0;right=0;align=left;spacingLeft=2;overflow=hidden;fontSize=11;" vertex="1" parent="Jy0EAikK4nVlXM4b6_sr-27">
          <mxGeometry width="36" height="22" as="geometry">
            <mxRectangle width="36" height="22" as="alternateBounds" />
          </mxGeometry>
        </mxCell>
        <mxCell id="Jy0EAikK4nVlXM4b6_sr-29" value="Sets" style="shape=partialRectangle;connectable=0;fillColor=none;top=0;left=0;bottom=0;right=0;align=left;spacingLeft=2;overflow=hidden;fontSize=11;" vertex="1" parent="Jy0EAikK4nVlXM4b6_sr-27">
          <mxGeometry x="36" width="72" height="22" as="geometry">
            <mxRectangle width="72" height="22" as="alternateBounds" />
          </mxGeometry>
        </mxCell>
        <mxCell id="Jy0EAikK4nVlXM4b6_sr-30" value="" style="shape=partialRectangle;connectable=0;fillColor=none;top=0;left=0;bottom=0;right=0;align=left;spacingLeft=2;overflow=hidden;fontSize=11;" vertex="1" parent="Jy0EAikK4nVlXM4b6_sr-27">
          <mxGeometry x="108" width="22" height="22" as="geometry">
            <mxRectangle width="22" height="22" as="alternateBounds" />
          </mxGeometry>
        </mxCell>
        <mxCell id="Jy0EAikK4nVlXM4b6_sr-31" value="" style="shape=partialRectangle;connectable=0;fillColor=none;top=0;left=0;bottom=0;right=0;align=left;spacingLeft=2;overflow=hidden;fontSize=11;" vertex="1" parent="Jy0EAikK4nVlXM4b6_sr-27">
          <mxGeometry x="130" width="126" height="22" as="geometry">
            <mxRectangle width="126" height="22" as="alternateBounds" />
          </mxGeometry>
        </mxCell>
        <mxCell id="Jy0EAikK4nVlXM4b6_sr-32" style="shape=tableRow;horizontal=0;startSize=0;swimlaneHead=0;swimlaneBody=0;fillColor=none;collapsible=0;dropTarget=0;points=[[0,0.5],[1,0.5]];portConstraint=eastwest;top=0;left=0;right=0;bottom=0;" vertex="1" parent="Jy0EAikK4nVlXM4b6_sr-1">
          <mxGeometry y="157" width="256" height="22" as="geometry" />
        </mxCell>
        <mxCell id="Jy0EAikK4nVlXM4b6_sr-33" value="INT" style="shape=partialRectangle;connectable=0;fillColor=none;top=0;left=0;bottom=0;right=0;align=left;spacingLeft=2;overflow=hidden;fontSize=11;" vertex="1" parent="Jy0EAikK4nVlXM4b6_sr-32">
          <mxGeometry width="36" height="22" as="geometry">
            <mxRectangle width="36" height="22" as="alternateBounds" />
          </mxGeometry>
        </mxCell>
        <mxCell id="Jy0EAikK4nVlXM4b6_sr-34" value="RepsMin" style="shape=partialRectangle;connectable=0;fillColor=none;top=0;left=0;bottom=0;right=0;align=left;spacingLeft=2;overflow=hidden;fontSize=11;" vertex="1" parent="Jy0EAikK4nVlXM4b6_sr-32">
          <mxGeometry x="36" width="72" height="22" as="geometry">
            <mxRectangle width="72" height="22" as="alternateBounds" />
          </mxGeometry>
        </mxCell>
        <mxCell id="Jy0EAikK4nVlXM4b6_sr-35" value="" style="shape=partialRectangle;connectable=0;fillColor=none;top=0;left=0;bottom=0;right=0;align=left;spacingLeft=2;overflow=hidden;fontSize=11;" vertex="1" parent="Jy0EAikK4nVlXM4b6_sr-32">
          <mxGeometry x="108" width="22" height="22" as="geometry">
            <mxRectangle width="22" height="22" as="alternateBounds" />
          </mxGeometry>
        </mxCell>
        <mxCell id="Jy0EAikK4nVlXM4b6_sr-36" value="" style="shape=partialRectangle;connectable=0;fillColor=none;top=0;left=0;bottom=0;right=0;align=left;spacingLeft=2;overflow=hidden;fontSize=11;" vertex="1" parent="Jy0EAikK4nVlXM4b6_sr-32">
          <mxGeometry x="130" width="126" height="22" as="geometry">
            <mxRectangle width="126" height="22" as="alternateBounds" />
          </mxGeometry>
        </mxCell>
        <mxCell id="Jy0EAikK4nVlXM4b6_sr-37" style="shape=tableRow;horizontal=0;startSize=0;swimlaneHead=0;swimlaneBody=0;fillColor=none;collapsible=0;dropTarget=0;points=[[0,0.5],[1,0.5]];portConstraint=eastwest;top=0;left=0;right=0;bottom=0;" vertex="1" parent="Jy0EAikK4nVlXM4b6_sr-1">
          <mxGeometry y="179" width="256" height="22" as="geometry" />
        </mxCell>
        <mxCell id="Jy0EAikK4nVlXM4b6_sr-38" value="INT" style="shape=partialRectangle;connectable=0;fillColor=none;top=0;left=0;bottom=0;right=0;align=left;spacingLeft=2;overflow=hidden;fontSize=11;" vertex="1" parent="Jy0EAikK4nVlXM4b6_sr-37">
          <mxGeometry width="36" height="22" as="geometry">
            <mxRectangle width="36" height="22" as="alternateBounds" />
          </mxGeometry>
        </mxCell>
        <mxCell id="Jy0EAikK4nVlXM4b6_sr-39" value="RepsMax" style="shape=partialRectangle;connectable=0;fillColor=none;top=0;left=0;bottom=0;right=0;align=left;spacingLeft=2;overflow=hidden;fontSize=11;" vertex="1" parent="Jy0EAikK4nVlXM4b6_sr-37">
          <mxGeometry x="36" width="72" height="22" as="geometry">
            <mxRectangle width="72" height="22" as="alternateBounds" />
          </mxGeometry>
        </mxCell>
        <mxCell id="Jy0EAikK4nVlXM4b6_sr-40" value="" style="shape=partialRectangle;connectable=0;fillColor=none;top=0;left=0;bottom=0;right=0;align=left;spacingLeft=2;overflow=hidden;fontSize=11;" vertex="1" parent="Jy0EAikK4nVlXM4b6_sr-37">
          <mxGeometry x="108" width="22" height="22" as="geometry">
            <mxRectangle width="22" height="22" as="alternateBounds" />
          </mxGeometry>
        </mxCell>
        <mxCell id="Jy0EAikK4nVlXM4b6_sr-41" value="" style="shape=partialRectangle;connectable=0;fillColor=none;top=0;left=0;bottom=0;right=0;align=left;spacingLeft=2;overflow=hidden;fontSize=11;" vertex="1" parent="Jy0EAikK4nVlXM4b6_sr-37">
          <mxGeometry x="130" width="126" height="22" as="geometry">
            <mxRectangle width="126" height="22" as="alternateBounds" />
          </mxGeometry>
        </mxCell>
        <mxCell id="Jy0EAikK4nVlXM4b6_sr-42" style="shape=tableRow;horizontal=0;startSize=0;swimlaneHead=0;swimlaneBody=0;fillColor=none;collapsible=0;dropTarget=0;points=[[0,0.5],[1,0.5]];portConstraint=eastwest;top=0;left=0;right=0;bottom=0;" vertex="1" parent="Jy0EAikK4nVlXM4b6_sr-1">
          <mxGeometry y="201" width="256" height="22" as="geometry" />
        </mxCell>
        <mxCell id="Jy0EAikK4nVlXM4b6_sr-43" value="STRING" style="shape=partialRectangle;connectable=0;fillColor=none;top=0;left=0;bottom=0;right=0;align=left;spacingLeft=2;overflow=hidden;fontSize=11;" vertex="1" parent="Jy0EAikK4nVlXM4b6_sr-42">
          <mxGeometry width="36" height="22" as="geometry">
            <mxRectangle width="36" height="22" as="alternateBounds" />
          </mxGeometry>
        </mxCell>
        <mxCell id="Jy0EAikK4nVlXM4b6_sr-44" value="RpeRange" style="shape=partialRectangle;connectable=0;fillColor=none;top=0;left=0;bottom=0;right=0;align=left;spacingLeft=2;overflow=hidden;fontSize=11;" vertex="1" parent="Jy0EAikK4nVlXM4b6_sr-42">
          <mxGeometry x="36" width="72" height="22" as="geometry">
            <mxRectangle width="72" height="22" as="alternateBounds" />
          </mxGeometry>
        </mxCell>
        <mxCell id="Jy0EAikK4nVlXM4b6_sr-45" value="" style="shape=partialRectangle;connectable=0;fillColor=none;top=0;left=0;bottom=0;right=0;align=left;spacingLeft=2;overflow=hidden;fontSize=11;" vertex="1" parent="Jy0EAikK4nVlXM4b6_sr-42">
          <mxGeometry x="108" width="22" height="22" as="geometry">
            <mxRectangle width="22" height="22" as="alternateBounds" />
          </mxGeometry>
        </mxCell>
        <mxCell id="Jy0EAikK4nVlXM4b6_sr-46" value="7-9" style="shape=partialRectangle;connectable=0;fillColor=none;top=0;left=0;bottom=0;right=0;align=left;spacingLeft=2;overflow=hidden;fontSize=11;" vertex="1" parent="Jy0EAikK4nVlXM4b6_sr-42">
          <mxGeometry x="130" width="126" height="22" as="geometry">
            <mxRectangle width="126" height="22" as="alternateBounds" />
          </mxGeometry>
        </mxCell>
        <mxCell id="Jy0EAikK4nVlXM4b6_sr-47" style="shape=tableRow;horizontal=0;startSize=0;swimlaneHead=0;swimlaneBody=0;fillColor=none;collapsible=0;dropTarget=0;points=[[0,0.5],[1,0.5]];portConstraint=eastwest;top=0;left=0;right=0;bottom=0;" vertex="1" parent="Jy0EAikK4nVlXM4b6_sr-1">
          <mxGeometry y="223" width="256" height="22" as="geometry" />
        </mxCell>
        <mxCell id="Jy0EAikK4nVlXM4b6_sr-48" value="STRING" style="shape=partialRectangle;connectable=0;fillColor=none;top=0;left=0;bottom=0;right=0;align=left;spacingLeft=2;overflow=hidden;fontSize=11;" vertex="1" parent="Jy0EAikK4nVlXM4b6_sr-47">
          <mxGeometry width="36" height="22" as="geometry">
            <mxRectangle width="36" height="22" as="alternateBounds" />
          </mxGeometry>
        </mxCell>
        <mxCell id="Jy0EAikK4nVlXM4b6_sr-49" value="RestInterval" style="shape=partialRectangle;connectable=0;fillColor=none;top=0;left=0;bottom=0;right=0;align=left;spacingLeft=2;overflow=hidden;fontSize=11;" vertex="1" parent="Jy0EAikK4nVlXM4b6_sr-47">
          <mxGeometry x="36" width="72" height="22" as="geometry">
            <mxRectangle width="72" height="22" as="alternateBounds" />
          </mxGeometry>
        </mxCell>
        <mxCell id="Jy0EAikK4nVlXM4b6_sr-50" value="" style="shape=partialRectangle;connectable=0;fillColor=none;top=0;left=0;bottom=0;right=0;align=left;spacingLeft=2;overflow=hidden;fontSize=11;" vertex="1" parent="Jy0EAikK4nVlXM4b6_sr-47">
          <mxGeometry x="108" width="22" height="22" as="geometry">
            <mxRectangle width="22" height="22" as="alternateBounds" />
          </mxGeometry>
        </mxCell>
        <mxCell id="Jy0EAikK4nVlXM4b6_sr-51" value="~3 min" style="shape=partialRectangle;connectable=0;fillColor=none;top=0;left=0;bottom=0;right=0;align=left;spacingLeft=2;overflow=hidden;fontSize=11;" vertex="1" parent="Jy0EAikK4nVlXM4b6_sr-47">
          <mxGeometry x="130" width="126" height="22" as="geometry">
            <mxRectangle width="126" height="22" as="alternateBounds" />
          </mxGeometry>
        </mxCell>
        <mxCell id="Jy0EAikK4nVlXM4b6_sr-52" style="shape=tableRow;horizontal=0;startSize=0;swimlaneHead=0;swimlaneBody=0;fillColor=none;collapsible=0;dropTarget=0;points=[[0,0.5],[1,0.5]];portConstraint=eastwest;top=0;left=0;right=0;bottom=0;" vertex="1" parent="Jy0EAikK4nVlXM4b6_sr-1">
          <mxGeometry y="245" width="256" height="22" as="geometry" />
        </mxCell>
        <mxCell id="Jy0EAikK4nVlXM4b6_sr-53" value="STRING" style="shape=partialRectangle;connectable=0;fillColor=none;top=0;left=0;bottom=0;right=0;align=left;spacingLeft=2;overflow=hidden;fontSize=11;" vertex="1" parent="Jy0EAikK4nVlXM4b6_sr-52">
          <mxGeometry width="36" height="22" as="geometry">
            <mxRectangle width="36" height="22" as="alternateBounds" />
          </mxGeometry>
        </mxCell>
        <mxCell id="Jy0EAikK4nVlXM4b6_sr-54" value="Notes" style="shape=partialRectangle;connectable=0;fillColor=none;top=0;left=0;bottom=0;right=0;align=left;spacingLeft=2;overflow=hidden;fontSize=11;" vertex="1" parent="Jy0EAikK4nVlXM4b6_sr-52">
          <mxGeometry x="36" width="72" height="22" as="geometry">
            <mxRectangle width="72" height="22" as="alternateBounds" />
          </mxGeometry>
        </mxCell>
        <mxCell id="Jy0EAikK4nVlXM4b6_sr-55" value="" style="shape=partialRectangle;connectable=0;fillColor=none;top=0;left=0;bottom=0;right=0;align=left;spacingLeft=2;overflow=hidden;fontSize=11;" vertex="1" parent="Jy0EAikK4nVlXM4b6_sr-52">
          <mxGeometry x="108" width="22" height="22" as="geometry">
            <mxRectangle width="22" height="22" as="alternateBounds" />
          </mxGeometry>
        </mxCell>
        <mxCell id="Jy0EAikK4nVlXM4b6_sr-56" value="" style="shape=partialRectangle;connectable=0;fillColor=none;top=0;left=0;bottom=0;right=0;align=left;spacingLeft=2;overflow=hidden;fontSize=11;" vertex="1" parent="Jy0EAikK4nVlXM4b6_sr-52">
          <mxGeometry x="130" width="126" height="22" as="geometry">
            <mxRectangle width="126" height="22" as="alternateBounds" />
          </mxGeometry>
        </mxCell>
        <mxCell id="Jy0EAikK4nVlXM4b6_sr-57" style="shape=tableRow;horizontal=0;startSize=0;swimlaneHead=0;swimlaneBody=0;fillColor=none;collapsible=0;dropTarget=0;points=[[0,0.5],[1,0.5]];portConstraint=eastwest;top=0;left=0;right=0;bottom=0;" vertex="1" parent="Jy0EAikK4nVlXM4b6_sr-1">
          <mxGeometry y="267" width="256" height="22" as="geometry" />
        </mxCell>
        <mxCell id="Jy0EAikK4nVlXM4b6_sr-58" value="GUID" style="shape=partialRectangle;connectable=0;fillColor=none;top=0;left=0;bottom=0;right=0;align=left;spacingLeft=2;overflow=hidden;fontSize=11;" vertex="1" parent="Jy0EAikK4nVlXM4b6_sr-57">
          <mxGeometry width="36" height="22" as="geometry">
            <mxRectangle width="36" height="22" as="alternateBounds" />
          </mxGeometry>
        </mxCell>
        <mxCell id="Jy0EAikK4nVlXM4b6_sr-59" value="ExerciseId" style="shape=partialRectangle;connectable=0;fillColor=none;top=0;left=0;bottom=0;right=0;align=left;spacingLeft=2;overflow=hidden;fontSize=11;" vertex="1" parent="Jy0EAikK4nVlXM4b6_sr-57">
          <mxGeometry x="36" width="72" height="22" as="geometry">
            <mxRectangle width="72" height="22" as="alternateBounds" />
          </mxGeometry>
        </mxCell>
        <mxCell id="Jy0EAikK4nVlXM4b6_sr-60" value="FK" style="shape=partialRectangle;connectable=0;fillColor=none;top=0;left=0;bottom=0;right=0;align=left;spacingLeft=2;overflow=hidden;fontSize=11;" vertex="1" parent="Jy0EAikK4nVlXM4b6_sr-57">
          <mxGeometry x="108" width="22" height="22" as="geometry">
            <mxRectangle width="22" height="22" as="alternateBounds" />
          </mxGeometry>
        </mxCell>
        <mxCell id="Jy0EAikK4nVlXM4b6_sr-61" value="" style="shape=partialRectangle;connectable=0;fillColor=none;top=0;left=0;bottom=0;right=0;align=left;spacingLeft=2;overflow=hidden;fontSize=11;" vertex="1" parent="Jy0EAikK4nVlXM4b6_sr-57">
          <mxGeometry x="130" width="126" height="22" as="geometry">
            <mxRectangle width="126" height="22" as="alternateBounds" />
          </mxGeometry>
        </mxCell>
        <mxCell id="Jy0EAikK4nVlXM4b6_sr-62" style="shape=tableRow;horizontal=0;startSize=0;swimlaneHead=0;swimlaneBody=0;fillColor=none;collapsible=0;dropTarget=0;points=[[0,0.5],[1,0.5]];portConstraint=eastwest;top=0;left=0;right=0;bottom=0;" vertex="1" parent="Jy0EAikK4nVlXM4b6_sr-1">
          <mxGeometry y="289" width="256" height="22" as="geometry" />
        </mxCell>
        <mxCell id="Jy0EAikK4nVlXM4b6_sr-63" value="GUID" style="shape=partialRectangle;connectable=0;fillColor=none;top=0;left=0;bottom=0;right=0;align=left;spacingLeft=2;overflow=hidden;fontSize=11;" vertex="1" parent="Jy0EAikK4nVlXM4b6_sr-62">
          <mxGeometry width="36" height="22" as="geometry">
            <mxRectangle width="36" height="22" as="alternateBounds" />
          </mxGeometry>
        </mxCell>
        <mxCell id="Jy0EAikK4nVlXM4b6_sr-64" value="Alternate1Id" style="shape=partialRectangle;connectable=0;fillColor=none;top=0;left=0;bottom=0;right=0;align=left;spacingLeft=2;overflow=hidden;fontSize=11;" vertex="1" parent="Jy0EAikK4nVlXM4b6_sr-62">
          <mxGeometry x="36" width="72" height="22" as="geometry">
            <mxRectangle width="72" height="22" as="alternateBounds" />
          </mxGeometry>
        </mxCell>
        <mxCell id="Jy0EAikK4nVlXM4b6_sr-65" value="FK" style="shape=partialRectangle;connectable=0;fillColor=none;top=0;left=0;bottom=0;right=0;align=left;spacingLeft=2;overflow=hidden;fontSize=11;" vertex="1" parent="Jy0EAikK4nVlXM4b6_sr-62">
          <mxGeometry x="108" width="22" height="22" as="geometry">
            <mxRectangle width="22" height="22" as="alternateBounds" />
          </mxGeometry>
        </mxCell>
        <mxCell id="Jy0EAikK4nVlXM4b6_sr-66" value="Optional" style="shape=partialRectangle;connectable=0;fillColor=none;top=0;left=0;bottom=0;right=0;align=left;spacingLeft=2;overflow=hidden;fontSize=11;" vertex="1" parent="Jy0EAikK4nVlXM4b6_sr-62">
          <mxGeometry x="130" width="126" height="22" as="geometry">
            <mxRectangle width="126" height="22" as="alternateBounds" />
          </mxGeometry>
        </mxCell>
        <mxCell id="Jy0EAikK4nVlXM4b6_sr-67" style="shape=tableRow;horizontal=0;startSize=0;swimlaneHead=0;swimlaneBody=0;fillColor=none;collapsible=0;dropTarget=0;points=[[0,0.5],[1,0.5]];portConstraint=eastwest;top=0;left=0;right=0;bottom=0;" vertex="1" parent="Jy0EAikK4nVlXM4b6_sr-1">
          <mxGeometry y="311" width="256" height="22" as="geometry" />
        </mxCell>
        <mxCell id="Jy0EAikK4nVlXM4b6_sr-68" value="GUID" style="shape=partialRectangle;connectable=0;fillColor=none;top=0;left=0;bottom=0;right=0;align=left;spacingLeft=2;overflow=hidden;fontSize=11;" vertex="1" parent="Jy0EAikK4nVlXM4b6_sr-67">
          <mxGeometry width="36" height="22" as="geometry">
            <mxRectangle width="36" height="22" as="alternateBounds" />
          </mxGeometry>
        </mxCell>
        <mxCell id="Jy0EAikK4nVlXM4b6_sr-69" value="Alternate2Id" style="shape=partialRectangle;connectable=0;fillColor=none;top=0;left=0;bottom=0;right=0;align=left;spacingLeft=2;overflow=hidden;fontSize=11;" vertex="1" parent="Jy0EAikK4nVlXM4b6_sr-67">
          <mxGeometry x="36" width="72" height="22" as="geometry">
            <mxRectangle width="72" height="22" as="alternateBounds" />
          </mxGeometry>
        </mxCell>
        <mxCell id="Jy0EAikK4nVlXM4b6_sr-70" value="FK" style="shape=partialRectangle;connectable=0;fillColor=none;top=0;left=0;bottom=0;right=0;align=left;spacingLeft=2;overflow=hidden;fontSize=11;" vertex="1" parent="Jy0EAikK4nVlXM4b6_sr-67">
          <mxGeometry x="108" width="22" height="22" as="geometry">
            <mxRectangle width="22" height="22" as="alternateBounds" />
          </mxGeometry>
        </mxCell>
        <mxCell id="Jy0EAikK4nVlXM4b6_sr-71" value="Optional" style="shape=partialRectangle;connectable=0;fillColor=none;top=0;left=0;bottom=0;right=0;align=left;spacingLeft=2;overflow=hidden;fontSize=11;" vertex="1" parent="Jy0EAikK4nVlXM4b6_sr-67">
          <mxGeometry x="130" width="126" height="22" as="geometry">
            <mxRectangle width="126" height="22" as="alternateBounds" />
          </mxGeometry>
        </mxCell>
        <mxCell id="Jy0EAikK4nVlXM4b6_sr-72" value="EXERCISE_SCHEDULE" style="shape=table;startSize=25;container=1;collapsible=0;childLayout=tableLayout;fixedRows=1;rowLines=1;fontStyle=1;align=center;resizeLast=1;" vertex="1" parent="1">
          <mxGeometry x="20" y="463" width="150" height="91" as="geometry" />
        </mxCell>
        <mxCell id="Jy0EAikK4nVlXM4b6_sr-73" style="shape=tableRow;horizontal=0;startSize=0;swimlaneHead=0;swimlaneBody=0;fillColor=none;collapsible=0;dropTarget=0;points=[[0,0.5],[1,0.5]];portConstraint=eastwest;top=0;left=0;right=0;bottom=0;" vertex="1" parent="Jy0EAikK4nVlXM4b6_sr-72">
          <mxGeometry y="25" width="150" height="22" as="geometry" />
        </mxCell>
        <mxCell id="Jy0EAikK4nVlXM4b6_sr-74" value="GUID" style="shape=partialRectangle;connectable=0;fillColor=none;top=0;left=0;bottom=0;right=0;align=left;spacingLeft=2;overflow=hidden;fontSize=11;" vertex="1" parent="Jy0EAikK4nVlXM4b6_sr-73">
          <mxGeometry width="24" height="22" as="geometry">
            <mxRectangle width="24" height="22" as="alternateBounds" />
          </mxGeometry>
        </mxCell>
        <mxCell id="Jy0EAikK4nVlXM4b6_sr-75" value="Id" style="shape=partialRectangle;connectable=0;fillColor=none;top=0;left=0;bottom=0;right=0;align=left;spacingLeft=2;overflow=hidden;fontSize=11;" vertex="1" parent="Jy0EAikK4nVlXM4b6_sr-73">
          <mxGeometry x="24" width="104" height="22" as="geometry">
            <mxRectangle width="104" height="22" as="alternateBounds" />
          </mxGeometry>
        </mxCell>
        <mxCell id="Jy0EAikK4nVlXM4b6_sr-76" value="PK" style="shape=partialRectangle;connectable=0;fillColor=none;top=0;left=0;bottom=0;right=0;align=left;spacingLeft=2;overflow=hidden;fontSize=11;" vertex="1" parent="Jy0EAikK4nVlXM4b6_sr-73">
          <mxGeometry x="128" width="22" height="22" as="geometry">
            <mxRectangle width="22" height="22" as="alternateBounds" />
          </mxGeometry>
        </mxCell>
        <mxCell id="Jy0EAikK4nVlXM4b6_sr-77" style="shape=tableRow;horizontal=0;startSize=0;swimlaneHead=0;swimlaneBody=0;fillColor=none;collapsible=0;dropTarget=0;points=[[0,0.5],[1,0.5]];portConstraint=eastwest;top=0;left=0;right=0;bottom=0;" vertex="1" parent="Jy0EAikK4nVlXM4b6_sr-72">
          <mxGeometry y="47" width="150" height="22" as="geometry" />
        </mxCell>
        <mxCell id="Jy0EAikK4nVlXM4b6_sr-78" value="DATE" style="shape=partialRectangle;connectable=0;fillColor=none;top=0;left=0;bottom=0;right=0;align=left;spacingLeft=2;overflow=hidden;fontSize=11;" vertex="1" parent="Jy0EAikK4nVlXM4b6_sr-77">
          <mxGeometry width="24" height="22" as="geometry">
            <mxRectangle width="24" height="22" as="alternateBounds" />
          </mxGeometry>
        </mxCell>
        <mxCell id="Jy0EAikK4nVlXM4b6_sr-79" value="ScheduledDate" style="shape=partialRectangle;connectable=0;fillColor=none;top=0;left=0;bottom=0;right=0;align=left;spacingLeft=2;overflow=hidden;fontSize=11;" vertex="1" parent="Jy0EAikK4nVlXM4b6_sr-77">
          <mxGeometry x="24" width="104" height="22" as="geometry">
            <mxRectangle width="104" height="22" as="alternateBounds" />
          </mxGeometry>
        </mxCell>
        <mxCell id="Jy0EAikK4nVlXM4b6_sr-80" value="" style="shape=partialRectangle;connectable=0;fillColor=none;top=0;left=0;bottom=0;right=0;align=left;spacingLeft=2;overflow=hidden;fontSize=11;" vertex="1" parent="Jy0EAikK4nVlXM4b6_sr-77">
          <mxGeometry x="128" width="22" height="22" as="geometry">
            <mxRectangle width="22" height="22" as="alternateBounds" />
          </mxGeometry>
        </mxCell>
        <mxCell id="Jy0EAikK4nVlXM4b6_sr-81" style="shape=tableRow;horizontal=0;startSize=0;swimlaneHead=0;swimlaneBody=0;fillColor=none;collapsible=0;dropTarget=0;points=[[0,0.5],[1,0.5]];portConstraint=eastwest;top=0;left=0;right=0;bottom=0;" vertex="1" parent="Jy0EAikK4nVlXM4b6_sr-72">
          <mxGeometry y="69" width="150" height="22" as="geometry" />
        </mxCell>
        <mxCell id="Jy0EAikK4nVlXM4b6_sr-82" value="GUID" style="shape=partialRectangle;connectable=0;fillColor=none;top=0;left=0;bottom=0;right=0;align=left;spacingLeft=2;overflow=hidden;fontSize=11;" vertex="1" parent="Jy0EAikK4nVlXM4b6_sr-81">
          <mxGeometry width="24" height="22" as="geometry">
            <mxRectangle width="24" height="22" as="alternateBounds" />
          </mxGeometry>
        </mxCell>
        <mxCell id="Jy0EAikK4nVlXM4b6_sr-83" value="ExerciseProgramId" style="shape=partialRectangle;connectable=0;fillColor=none;top=0;left=0;bottom=0;right=0;align=left;spacingLeft=2;overflow=hidden;fontSize=11;" vertex="1" parent="Jy0EAikK4nVlXM4b6_sr-81">
          <mxGeometry x="24" width="104" height="22" as="geometry">
            <mxRectangle width="104" height="22" as="alternateBounds" />
          </mxGeometry>
        </mxCell>
        <mxCell id="Jy0EAikK4nVlXM4b6_sr-84" value="FK" style="shape=partialRectangle;connectable=0;fillColor=none;top=0;left=0;bottom=0;right=0;align=left;spacingLeft=2;overflow=hidden;fontSize=11;" vertex="1" parent="Jy0EAikK4nVlXM4b6_sr-81">
          <mxGeometry x="128" width="22" height="22" as="geometry">
            <mxRectangle width="22" height="22" as="alternateBounds" />
          </mxGeometry>
        </mxCell>
        <mxCell id="Jy0EAikK4nVlXM4b6_sr-85" value="EXERCISE" style="shape=table;startSize=25;container=1;collapsible=0;childLayout=tableLayout;fixedRows=1;rowLines=1;fontStyle=1;align=center;resizeLast=1;" vertex="1" parent="1">
          <mxGeometry x="320" y="452" width="184" height="113" as="geometry" />
        </mxCell>
        <mxCell id="Jy0EAikK4nVlXM4b6_sr-86" style="shape=tableRow;horizontal=0;startSize=0;swimlaneHead=0;swimlaneBody=0;fillColor=none;collapsible=0;dropTarget=0;points=[[0,0.5],[1,0.5]];portConstraint=eastwest;top=0;left=0;right=0;bottom=0;" vertex="1" parent="Jy0EAikK4nVlXM4b6_sr-85">
          <mxGeometry y="25" width="184" height="22" as="geometry" />
        </mxCell>
        <mxCell id="Jy0EAikK4nVlXM4b6_sr-87" value="GUID" style="shape=partialRectangle;connectable=0;fillColor=none;top=0;left=0;bottom=0;right=0;align=left;spacingLeft=2;overflow=hidden;fontSize=11;" vertex="1" parent="Jy0EAikK4nVlXM4b6_sr-86">
          <mxGeometry width="36" height="22" as="geometry">
            <mxRectangle width="36" height="22" as="alternateBounds" />
          </mxGeometry>
        </mxCell>
        <mxCell id="Jy0EAikK4nVlXM4b6_sr-88" value="Id" style="shape=partialRectangle;connectable=0;fillColor=none;top=0;left=0;bottom=0;right=0;align=left;spacingLeft=2;overflow=hidden;fontSize=11;" vertex="1" parent="Jy0EAikK4nVlXM4b6_sr-86">
          <mxGeometry x="36" width="78" height="22" as="geometry">
            <mxRectangle width="78" height="22" as="alternateBounds" />
          </mxGeometry>
        </mxCell>
        <mxCell id="Jy0EAikK4nVlXM4b6_sr-89" value="PK" style="shape=partialRectangle;connectable=0;fillColor=none;top=0;left=0;bottom=0;right=0;align=left;spacingLeft=2;overflow=hidden;fontSize=11;" vertex="1" parent="Jy0EAikK4nVlXM4b6_sr-86">
          <mxGeometry x="114" width="22" height="22" as="geometry">
            <mxRectangle width="22" height="22" as="alternateBounds" />
          </mxGeometry>
        </mxCell>
        <mxCell id="Jy0EAikK4nVlXM4b6_sr-90" value="" style="shape=partialRectangle;connectable=0;fillColor=none;top=0;left=0;bottom=0;right=0;align=left;spacingLeft=2;overflow=hidden;fontSize=11;" vertex="1" parent="Jy0EAikK4nVlXM4b6_sr-86">
          <mxGeometry x="136" width="48" height="22" as="geometry">
            <mxRectangle width="48" height="22" as="alternateBounds" />
          </mxGeometry>
        </mxCell>
        <mxCell id="Jy0EAikK4nVlXM4b6_sr-91" style="shape=tableRow;horizontal=0;startSize=0;swimlaneHead=0;swimlaneBody=0;fillColor=none;collapsible=0;dropTarget=0;points=[[0,0.5],[1,0.5]];portConstraint=eastwest;top=0;left=0;right=0;bottom=0;" vertex="1" parent="Jy0EAikK4nVlXM4b6_sr-85">
          <mxGeometry y="47" width="184" height="22" as="geometry" />
        </mxCell>
        <mxCell id="Jy0EAikK4nVlXM4b6_sr-92" value="STRING" style="shape=partialRectangle;connectable=0;fillColor=none;top=0;left=0;bottom=0;right=0;align=left;spacingLeft=2;overflow=hidden;fontSize=11;" vertex="1" parent="Jy0EAikK4nVlXM4b6_sr-91">
          <mxGeometry width="36" height="22" as="geometry">
            <mxRectangle width="36" height="22" as="alternateBounds" />
          </mxGeometry>
        </mxCell>
        <mxCell id="Jy0EAikK4nVlXM4b6_sr-93" value="Name" style="shape=partialRectangle;connectable=0;fillColor=none;top=0;left=0;bottom=0;right=0;align=left;spacingLeft=2;overflow=hidden;fontSize=11;" vertex="1" parent="Jy0EAikK4nVlXM4b6_sr-91">
          <mxGeometry x="36" width="78" height="22" as="geometry">
            <mxRectangle width="78" height="22" as="alternateBounds" />
          </mxGeometry>
        </mxCell>
        <mxCell id="Jy0EAikK4nVlXM4b6_sr-94" value="" style="shape=partialRectangle;connectable=0;fillColor=none;top=0;left=0;bottom=0;right=0;align=left;spacingLeft=2;overflow=hidden;fontSize=11;" vertex="1" parent="Jy0EAikK4nVlXM4b6_sr-91">
          <mxGeometry x="114" width="22" height="22" as="geometry">
            <mxRectangle width="22" height="22" as="alternateBounds" />
          </mxGeometry>
        </mxCell>
        <mxCell id="Jy0EAikK4nVlXM4b6_sr-95" value="" style="shape=partialRectangle;connectable=0;fillColor=none;top=0;left=0;bottom=0;right=0;align=left;spacingLeft=2;overflow=hidden;fontSize=11;" vertex="1" parent="Jy0EAikK4nVlXM4b6_sr-91">
          <mxGeometry x="136" width="48" height="22" as="geometry">
            <mxRectangle width="48" height="22" as="alternateBounds" />
          </mxGeometry>
        </mxCell>
        <mxCell id="Jy0EAikK4nVlXM4b6_sr-96" style="shape=tableRow;horizontal=0;startSize=0;swimlaneHead=0;swimlaneBody=0;fillColor=none;collapsible=0;dropTarget=0;points=[[0,0.5],[1,0.5]];portConstraint=eastwest;top=0;left=0;right=0;bottom=0;" vertex="1" parent="Jy0EAikK4nVlXM4b6_sr-85">
          <mxGeometry y="69" width="184" height="22" as="geometry" />
        </mxCell>
        <mxCell id="Jy0EAikK4nVlXM4b6_sr-97" value="STRING" style="shape=partialRectangle;connectable=0;fillColor=none;top=0;left=0;bottom=0;right=0;align=left;spacingLeft=2;overflow=hidden;fontSize=11;" vertex="1" parent="Jy0EAikK4nVlXM4b6_sr-96">
          <mxGeometry width="36" height="22" as="geometry">
            <mxRectangle width="36" height="22" as="alternateBounds" />
          </mxGeometry>
        </mxCell>
        <mxCell id="Jy0EAikK4nVlXM4b6_sr-98" value="MuscleGroup" style="shape=partialRectangle;connectable=0;fillColor=none;top=0;left=0;bottom=0;right=0;align=left;spacingLeft=2;overflow=hidden;fontSize=11;" vertex="1" parent="Jy0EAikK4nVlXM4b6_sr-96">
          <mxGeometry x="36" width="78" height="22" as="geometry">
            <mxRectangle width="78" height="22" as="alternateBounds" />
          </mxGeometry>
        </mxCell>
        <mxCell id="Jy0EAikK4nVlXM4b6_sr-99" value="" style="shape=partialRectangle;connectable=0;fillColor=none;top=0;left=0;bottom=0;right=0;align=left;spacingLeft=2;overflow=hidden;fontSize=11;" vertex="1" parent="Jy0EAikK4nVlXM4b6_sr-96">
          <mxGeometry x="114" width="22" height="22" as="geometry">
            <mxRectangle width="22" height="22" as="alternateBounds" />
          </mxGeometry>
        </mxCell>
        <mxCell id="Jy0EAikK4nVlXM4b6_sr-100" value="" style="shape=partialRectangle;connectable=0;fillColor=none;top=0;left=0;bottom=0;right=0;align=left;spacingLeft=2;overflow=hidden;fontSize=11;" vertex="1" parent="Jy0EAikK4nVlXM4b6_sr-96">
          <mxGeometry x="136" width="48" height="22" as="geometry">
            <mxRectangle width="48" height="22" as="alternateBounds" />
          </mxGeometry>
        </mxCell>
        <mxCell id="Jy0EAikK4nVlXM4b6_sr-101" style="shape=tableRow;horizontal=0;startSize=0;swimlaneHead=0;swimlaneBody=0;fillColor=none;collapsible=0;dropTarget=0;points=[[0,0.5],[1,0.5]];portConstraint=eastwest;top=0;left=0;right=0;bottom=0;" vertex="1" parent="Jy0EAikK4nVlXM4b6_sr-85">
          <mxGeometry y="91" width="184" height="22" as="geometry" />
        </mxCell>
        <mxCell id="Jy0EAikK4nVlXM4b6_sr-102" value="STRING" style="shape=partialRectangle;connectable=0;fillColor=none;top=0;left=0;bottom=0;right=0;align=left;spacingLeft=2;overflow=hidden;fontSize=11;" vertex="1" parent="Jy0EAikK4nVlXM4b6_sr-101">
          <mxGeometry width="36" height="22" as="geometry">
            <mxRectangle width="36" height="22" as="alternateBounds" />
          </mxGeometry>
        </mxCell>
        <mxCell id="Jy0EAikK4nVlXM4b6_sr-103" value="VideoUrl" style="shape=partialRectangle;connectable=0;fillColor=none;top=0;left=0;bottom=0;right=0;align=left;spacingLeft=2;overflow=hidden;fontSize=11;" vertex="1" parent="Jy0EAikK4nVlXM4b6_sr-101">
          <mxGeometry x="36" width="78" height="22" as="geometry">
            <mxRectangle width="78" height="22" as="alternateBounds" />
          </mxGeometry>
        </mxCell>
        <mxCell id="Jy0EAikK4nVlXM4b6_sr-104" value="" style="shape=partialRectangle;connectable=0;fillColor=none;top=0;left=0;bottom=0;right=0;align=left;spacingLeft=2;overflow=hidden;fontSize=11;" vertex="1" parent="Jy0EAikK4nVlXM4b6_sr-101">
          <mxGeometry x="114" width="22" height="22" as="geometry">
            <mxRectangle width="22" height="22" as="alternateBounds" />
          </mxGeometry>
        </mxCell>
        <mxCell id="Jy0EAikK4nVlXM4b6_sr-105" value="Optional" style="shape=partialRectangle;connectable=0;fillColor=none;top=0;left=0;bottom=0;right=0;align=left;spacingLeft=2;overflow=hidden;fontSize=11;" vertex="1" parent="Jy0EAikK4nVlXM4b6_sr-101">
          <mxGeometry x="136" width="48" height="22" as="geometry">
            <mxRectangle width="48" height="22" as="alternateBounds" />
          </mxGeometry>
        </mxCell>
        <mxCell id="Jy0EAikK4nVlXM4b6_sr-106" value="RESULT" style="shape=table;startSize=25;container=1;collapsible=0;childLayout=tableLayout;fixedRows=1;rowLines=1;fontStyle=1;align=center;resizeLast=1;" vertex="1" parent="1">
          <mxGeometry x="404" y="664" width="216" height="179" as="geometry" />
        </mxCell>
        <mxCell id="Jy0EAikK4nVlXM4b6_sr-107" style="shape=tableRow;horizontal=0;startSize=0;swimlaneHead=0;swimlaneBody=0;fillColor=none;collapsible=0;dropTarget=0;points=[[0,0.5],[1,0.5]];portConstraint=eastwest;top=0;left=0;right=0;bottom=0;" vertex="1" parent="Jy0EAikK4nVlXM4b6_sr-106">
          <mxGeometry y="25" width="216" height="22" as="geometry" />
        </mxCell>
        <mxCell id="Jy0EAikK4nVlXM4b6_sr-108" value="GUID" style="shape=partialRectangle;connectable=0;fillColor=none;top=0;left=0;bottom=0;right=0;align=left;spacingLeft=2;overflow=hidden;fontSize=11;" vertex="1" parent="Jy0EAikK4nVlXM4b6_sr-107">
          <mxGeometry width="42" height="22" as="geometry">
            <mxRectangle width="42" height="22" as="alternateBounds" />
          </mxGeometry>
        </mxCell>
        <mxCell id="Jy0EAikK4nVlXM4b6_sr-109" value="Id" style="shape=partialRectangle;connectable=0;fillColor=none;top=0;left=0;bottom=0;right=0;align=left;spacingLeft=2;overflow=hidden;fontSize=11;" vertex="1" parent="Jy0EAikK4nVlXM4b6_sr-107">
          <mxGeometry x="42" width="104" height="22" as="geometry">
            <mxRectangle width="104" height="22" as="alternateBounds" />
          </mxGeometry>
        </mxCell>
        <mxCell id="Jy0EAikK4nVlXM4b6_sr-110" value="PK" style="shape=partialRectangle;connectable=0;fillColor=none;top=0;left=0;bottom=0;right=0;align=left;spacingLeft=2;overflow=hidden;fontSize=11;" vertex="1" parent="Jy0EAikK4nVlXM4b6_sr-107">
          <mxGeometry x="146" width="22" height="22" as="geometry">
            <mxRectangle width="22" height="22" as="alternateBounds" />
          </mxGeometry>
        </mxCell>
        <mxCell id="Jy0EAikK4nVlXM4b6_sr-111" value="" style="shape=partialRectangle;connectable=0;fillColor=none;top=0;left=0;bottom=0;right=0;align=left;spacingLeft=2;overflow=hidden;fontSize=11;" vertex="1" parent="Jy0EAikK4nVlXM4b6_sr-107">
          <mxGeometry x="168" width="48" height="22" as="geometry">
            <mxRectangle width="48" height="22" as="alternateBounds" />
          </mxGeometry>
        </mxCell>
        <mxCell id="Jy0EAikK4nVlXM4b6_sr-112" style="shape=tableRow;horizontal=0;startSize=0;swimlaneHead=0;swimlaneBody=0;fillColor=none;collapsible=0;dropTarget=0;points=[[0,0.5],[1,0.5]];portConstraint=eastwest;top=0;left=0;right=0;bottom=0;" vertex="1" parent="Jy0EAikK4nVlXM4b6_sr-106">
          <mxGeometry y="47" width="216" height="22" as="geometry" />
        </mxCell>
        <mxCell id="Jy0EAikK4nVlXM4b6_sr-113" value="DATE" style="shape=partialRectangle;connectable=0;fillColor=none;top=0;left=0;bottom=0;right=0;align=left;spacingLeft=2;overflow=hidden;fontSize=11;" vertex="1" parent="Jy0EAikK4nVlXM4b6_sr-112">
          <mxGeometry width="42" height="22" as="geometry">
            <mxRectangle width="42" height="22" as="alternateBounds" />
          </mxGeometry>
        </mxCell>
        <mxCell id="Jy0EAikK4nVlXM4b6_sr-114" value="Date" style="shape=partialRectangle;connectable=0;fillColor=none;top=0;left=0;bottom=0;right=0;align=left;spacingLeft=2;overflow=hidden;fontSize=11;" vertex="1" parent="Jy0EAikK4nVlXM4b6_sr-112">
          <mxGeometry x="42" width="104" height="22" as="geometry">
            <mxRectangle width="104" height="22" as="alternateBounds" />
          </mxGeometry>
        </mxCell>
        <mxCell id="Jy0EAikK4nVlXM4b6_sr-115" value="" style="shape=partialRectangle;connectable=0;fillColor=none;top=0;left=0;bottom=0;right=0;align=left;spacingLeft=2;overflow=hidden;fontSize=11;" vertex="1" parent="Jy0EAikK4nVlXM4b6_sr-112">
          <mxGeometry x="146" width="22" height="22" as="geometry">
            <mxRectangle width="22" height="22" as="alternateBounds" />
          </mxGeometry>
        </mxCell>
        <mxCell id="Jy0EAikK4nVlXM4b6_sr-116" value="" style="shape=partialRectangle;connectable=0;fillColor=none;top=0;left=0;bottom=0;right=0;align=left;spacingLeft=2;overflow=hidden;fontSize=11;" vertex="1" parent="Jy0EAikK4nVlXM4b6_sr-112">
          <mxGeometry x="168" width="48" height="22" as="geometry">
            <mxRectangle width="48" height="22" as="alternateBounds" />
          </mxGeometry>
        </mxCell>
        <mxCell id="Jy0EAikK4nVlXM4b6_sr-117" style="shape=tableRow;horizontal=0;startSize=0;swimlaneHead=0;swimlaneBody=0;fillColor=none;collapsible=0;dropTarget=0;points=[[0,0.5],[1,0.5]];portConstraint=eastwest;top=0;left=0;right=0;bottom=0;" vertex="1" parent="Jy0EAikK4nVlXM4b6_sr-106">
          <mxGeometry y="69" width="216" height="22" as="geometry" />
        </mxCell>
        <mxCell id="Jy0EAikK4nVlXM4b6_sr-118" value="DECIMAL" style="shape=partialRectangle;connectable=0;fillColor=none;top=0;left=0;bottom=0;right=0;align=left;spacingLeft=2;overflow=hidden;fontSize=11;" vertex="1" parent="Jy0EAikK4nVlXM4b6_sr-117">
          <mxGeometry width="42" height="22" as="geometry">
            <mxRectangle width="42" height="22" as="alternateBounds" />
          </mxGeometry>
        </mxCell>
        <mxCell id="Jy0EAikK4nVlXM4b6_sr-119" value="WeightLifted" style="shape=partialRectangle;connectable=0;fillColor=none;top=0;left=0;bottom=0;right=0;align=left;spacingLeft=2;overflow=hidden;fontSize=11;" vertex="1" parent="Jy0EAikK4nVlXM4b6_sr-117">
          <mxGeometry x="42" width="104" height="22" as="geometry">
            <mxRectangle width="104" height="22" as="alternateBounds" />
          </mxGeometry>
        </mxCell>
        <mxCell id="Jy0EAikK4nVlXM4b6_sr-120" value="" style="shape=partialRectangle;connectable=0;fillColor=none;top=0;left=0;bottom=0;right=0;align=left;spacingLeft=2;overflow=hidden;fontSize=11;" vertex="1" parent="Jy0EAikK4nVlXM4b6_sr-117">
          <mxGeometry x="146" width="22" height="22" as="geometry">
            <mxRectangle width="22" height="22" as="alternateBounds" />
          </mxGeometry>
        </mxCell>
        <mxCell id="Jy0EAikK4nVlXM4b6_sr-121" value="" style="shape=partialRectangle;connectable=0;fillColor=none;top=0;left=0;bottom=0;right=0;align=left;spacingLeft=2;overflow=hidden;fontSize=11;" vertex="1" parent="Jy0EAikK4nVlXM4b6_sr-117">
          <mxGeometry x="168" width="48" height="22" as="geometry">
            <mxRectangle width="48" height="22" as="alternateBounds" />
          </mxGeometry>
        </mxCell>
        <mxCell id="Jy0EAikK4nVlXM4b6_sr-122" style="shape=tableRow;horizontal=0;startSize=0;swimlaneHead=0;swimlaneBody=0;fillColor=none;collapsible=0;dropTarget=0;points=[[0,0.5],[1,0.5]];portConstraint=eastwest;top=0;left=0;right=0;bottom=0;" vertex="1" parent="Jy0EAikK4nVlXM4b6_sr-106">
          <mxGeometry y="91" width="216" height="22" as="geometry" />
        </mxCell>
        <mxCell id="Jy0EAikK4nVlXM4b6_sr-123" value="INT" style="shape=partialRectangle;connectable=0;fillColor=none;top=0;left=0;bottom=0;right=0;align=left;spacingLeft=2;overflow=hidden;fontSize=11;" vertex="1" parent="Jy0EAikK4nVlXM4b6_sr-122">
          <mxGeometry width="42" height="22" as="geometry">
            <mxRectangle width="42" height="22" as="alternateBounds" />
          </mxGeometry>
        </mxCell>
        <mxCell id="Jy0EAikK4nVlXM4b6_sr-124" value="RepsPerformed" style="shape=partialRectangle;connectable=0;fillColor=none;top=0;left=0;bottom=0;right=0;align=left;spacingLeft=2;overflow=hidden;fontSize=11;" vertex="1" parent="Jy0EAikK4nVlXM4b6_sr-122">
          <mxGeometry x="42" width="104" height="22" as="geometry">
            <mxRectangle width="104" height="22" as="alternateBounds" />
          </mxGeometry>
        </mxCell>
        <mxCell id="Jy0EAikK4nVlXM4b6_sr-125" value="" style="shape=partialRectangle;connectable=0;fillColor=none;top=0;left=0;bottom=0;right=0;align=left;spacingLeft=2;overflow=hidden;fontSize=11;" vertex="1" parent="Jy0EAikK4nVlXM4b6_sr-122">
          <mxGeometry x="146" width="22" height="22" as="geometry">
            <mxRectangle width="22" height="22" as="alternateBounds" />
          </mxGeometry>
        </mxCell>
        <mxCell id="Jy0EAikK4nVlXM4b6_sr-126" value="" style="shape=partialRectangle;connectable=0;fillColor=none;top=0;left=0;bottom=0;right=0;align=left;spacingLeft=2;overflow=hidden;fontSize=11;" vertex="1" parent="Jy0EAikK4nVlXM4b6_sr-122">
          <mxGeometry x="168" width="48" height="22" as="geometry">
            <mxRectangle width="48" height="22" as="alternateBounds" />
          </mxGeometry>
        </mxCell>
        <mxCell id="Jy0EAikK4nVlXM4b6_sr-127" style="shape=tableRow;horizontal=0;startSize=0;swimlaneHead=0;swimlaneBody=0;fillColor=none;collapsible=0;dropTarget=0;points=[[0,0.5],[1,0.5]];portConstraint=eastwest;top=0;left=0;right=0;bottom=0;" vertex="1" parent="Jy0EAikK4nVlXM4b6_sr-106">
          <mxGeometry y="113" width="216" height="22" as="geometry" />
        </mxCell>
        <mxCell id="Jy0EAikK4nVlXM4b6_sr-128" value="STRING" style="shape=partialRectangle;connectable=0;fillColor=none;top=0;left=0;bottom=0;right=0;align=left;spacingLeft=2;overflow=hidden;fontSize=11;" vertex="1" parent="Jy0EAikK4nVlXM4b6_sr-127">
          <mxGeometry width="42" height="22" as="geometry">
            <mxRectangle width="42" height="22" as="alternateBounds" />
          </mxGeometry>
        </mxCell>
        <mxCell id="Jy0EAikK4nVlXM4b6_sr-129" value="Notes" style="shape=partialRectangle;connectable=0;fillColor=none;top=0;left=0;bottom=0;right=0;align=left;spacingLeft=2;overflow=hidden;fontSize=11;" vertex="1" parent="Jy0EAikK4nVlXM4b6_sr-127">
          <mxGeometry x="42" width="104" height="22" as="geometry">
            <mxRectangle width="104" height="22" as="alternateBounds" />
          </mxGeometry>
        </mxCell>
        <mxCell id="Jy0EAikK4nVlXM4b6_sr-130" value="" style="shape=partialRectangle;connectable=0;fillColor=none;top=0;left=0;bottom=0;right=0;align=left;spacingLeft=2;overflow=hidden;fontSize=11;" vertex="1" parent="Jy0EAikK4nVlXM4b6_sr-127">
          <mxGeometry x="146" width="22" height="22" as="geometry">
            <mxRectangle width="22" height="22" as="alternateBounds" />
          </mxGeometry>
        </mxCell>
        <mxCell id="Jy0EAikK4nVlXM4b6_sr-131" value="Optional" style="shape=partialRectangle;connectable=0;fillColor=none;top=0;left=0;bottom=0;right=0;align=left;spacingLeft=2;overflow=hidden;fontSize=11;" vertex="1" parent="Jy0EAikK4nVlXM4b6_sr-127">
          <mxGeometry x="168" width="48" height="22" as="geometry">
            <mxRectangle width="48" height="22" as="alternateBounds" />
          </mxGeometry>
        </mxCell>
        <mxCell id="Jy0EAikK4nVlXM4b6_sr-132" style="shape=tableRow;horizontal=0;startSize=0;swimlaneHead=0;swimlaneBody=0;fillColor=none;collapsible=0;dropTarget=0;points=[[0,0.5],[1,0.5]];portConstraint=eastwest;top=0;left=0;right=0;bottom=0;" vertex="1" parent="Jy0EAikK4nVlXM4b6_sr-106">
          <mxGeometry y="135" width="216" height="22" as="geometry" />
        </mxCell>
        <mxCell id="Jy0EAikK4nVlXM4b6_sr-133" value="GUID" style="shape=partialRectangle;connectable=0;fillColor=none;top=0;left=0;bottom=0;right=0;align=left;spacingLeft=2;overflow=hidden;fontSize=11;" vertex="1" parent="Jy0EAikK4nVlXM4b6_sr-132">
          <mxGeometry width="42" height="22" as="geometry">
            <mxRectangle width="42" height="22" as="alternateBounds" />
          </mxGeometry>
        </mxCell>
        <mxCell id="Jy0EAikK4nVlXM4b6_sr-134" value="ExerciseProgramId" style="shape=partialRectangle;connectable=0;fillColor=none;top=0;left=0;bottom=0;right=0;align=left;spacingLeft=2;overflow=hidden;fontSize=11;" vertex="1" parent="Jy0EAikK4nVlXM4b6_sr-132">
          <mxGeometry x="42" width="104" height="22" as="geometry">
            <mxRectangle width="104" height="22" as="alternateBounds" />
          </mxGeometry>
        </mxCell>
        <mxCell id="Jy0EAikK4nVlXM4b6_sr-135" value="FK" style="shape=partialRectangle;connectable=0;fillColor=none;top=0;left=0;bottom=0;right=0;align=left;spacingLeft=2;overflow=hidden;fontSize=11;" vertex="1" parent="Jy0EAikK4nVlXM4b6_sr-132">
          <mxGeometry x="146" width="22" height="22" as="geometry">
            <mxRectangle width="22" height="22" as="alternateBounds" />
          </mxGeometry>
        </mxCell>
        <mxCell id="Jy0EAikK4nVlXM4b6_sr-136" value="" style="shape=partialRectangle;connectable=0;fillColor=none;top=0;left=0;bottom=0;right=0;align=left;spacingLeft=2;overflow=hidden;fontSize=11;" vertex="1" parent="Jy0EAikK4nVlXM4b6_sr-132">
          <mxGeometry x="168" width="48" height="22" as="geometry">
            <mxRectangle width="48" height="22" as="alternateBounds" />
          </mxGeometry>
        </mxCell>
        <mxCell id="Jy0EAikK4nVlXM4b6_sr-137" style="shape=tableRow;horizontal=0;startSize=0;swimlaneHead=0;swimlaneBody=0;fillColor=none;collapsible=0;dropTarget=0;points=[[0,0.5],[1,0.5]];portConstraint=eastwest;top=0;left=0;right=0;bottom=0;" vertex="1" parent="Jy0EAikK4nVlXM4b6_sr-106">
          <mxGeometry y="157" width="216" height="22" as="geometry" />
        </mxCell>
        <mxCell id="Jy0EAikK4nVlXM4b6_sr-138" value="GUID" style="shape=partialRectangle;connectable=0;fillColor=none;top=0;left=0;bottom=0;right=0;align=left;spacingLeft=2;overflow=hidden;fontSize=11;" vertex="1" parent="Jy0EAikK4nVlXM4b6_sr-137">
          <mxGeometry width="42" height="22" as="geometry">
            <mxRectangle width="42" height="22" as="alternateBounds" />
          </mxGeometry>
        </mxCell>
        <mxCell id="Jy0EAikK4nVlXM4b6_sr-139" value="ExerciseId" style="shape=partialRectangle;connectable=0;fillColor=none;top=0;left=0;bottom=0;right=0;align=left;spacingLeft=2;overflow=hidden;fontSize=11;" vertex="1" parent="Jy0EAikK4nVlXM4b6_sr-137">
          <mxGeometry x="42" width="104" height="22" as="geometry">
            <mxRectangle width="104" height="22" as="alternateBounds" />
          </mxGeometry>
        </mxCell>
        <mxCell id="Jy0EAikK4nVlXM4b6_sr-140" value="FK" style="shape=partialRectangle;connectable=0;fillColor=none;top=0;left=0;bottom=0;right=0;align=left;spacingLeft=2;overflow=hidden;fontSize=11;" vertex="1" parent="Jy0EAikK4nVlXM4b6_sr-137">
          <mxGeometry x="146" width="22" height="22" as="geometry">
            <mxRectangle width="22" height="22" as="alternateBounds" />
          </mxGeometry>
        </mxCell>
        <mxCell id="Jy0EAikK4nVlXM4b6_sr-141" value="" style="shape=partialRectangle;connectable=0;fillColor=none;top=0;left=0;bottom=0;right=0;align=left;spacingLeft=2;overflow=hidden;fontSize=11;" vertex="1" parent="Jy0EAikK4nVlXM4b6_sr-137">
          <mxGeometry x="168" width="48" height="22" as="geometry">
            <mxRectangle width="48" height="22" as="alternateBounds" />
          </mxGeometry>
        </mxCell>
        <mxCell id="Jy0EAikK4nVlXM4b6_sr-142" value="is scheduled as" style="curved=1;startArrow=ERmandOne;startSize=10;;endArrow=ERoneToMany;endSize=10;;exitX=0;exitY=0.76;entryX=0.5;entryY=0;rounded=0;" edge="1" parent="1" source="Jy0EAikK4nVlXM4b6_sr-1" target="Jy0EAikK4nVlXM4b6_sr-72">
          <mxGeometry relative="1" as="geometry">
            <Array as="points">
              <mxPoint x="95" y="402" />
            </Array>
          </mxGeometry>
        </mxCell>
        <mxCell id="Jy0EAikK4nVlXM4b6_sr-143" value="is used in" style="curved=1;startArrow=ERmandOne;startSize=10;;endArrow=ERzeroToMany;endSize=10;;exitX=0.93;exitY=0;entryX=0.93;entryY=1;rounded=0;" edge="1" parent="1" source="Jy0EAikK4nVlXM4b6_sr-85" target="Jy0EAikK4nVlXM4b6_sr-1">
          <mxGeometry relative="1" as="geometry">
            <Array as="points">
              <mxPoint x="562" y="402" />
            </Array>
          </mxGeometry>
        </mxCell>
        <mxCell id="Jy0EAikK4nVlXM4b6_sr-144" value="has one" style="curved=1;startArrow=ERmandOne;startSize=10;;endArrow=ERzeroToOne;endSize=10;;exitX=0.03;exitY=1;entryX=0.07;entryY=0;rounded=0;" edge="1" parent="1" source="Jy0EAikK4nVlXM4b6_sr-1" target="Jy0EAikK4nVlXM4b6_sr-85">
          <mxGeometry relative="1" as="geometry">
            <Array as="points">
              <mxPoint x="262" y="402" />
            </Array>
          </mxGeometry>
        </mxCell>
        <mxCell id="Jy0EAikK4nVlXM4b6_sr-145" value="has alternate 1" style="curved=1;startArrow=ERmandOne;startSize=10;;endArrow=ERzeroToOne;endSize=10;;exitX=0.33;exitY=1;entryX=0.36;entryY=0;rounded=0;" edge="1" parent="1" source="Jy0EAikK4nVlXM4b6_sr-1" target="Jy0EAikK4nVlXM4b6_sr-85">
          <mxGeometry relative="1" as="geometry">
            <Array as="points">
              <mxPoint x="362" y="402" />
            </Array>
          </mxGeometry>
        </mxCell>
        <mxCell id="Jy0EAikK4nVlXM4b6_sr-146" value="has alternate 2" style="curved=1;startArrow=ERmandOne;startSize=10;;endArrow=ERzeroToOne;endSize=10;;exitX=0.63;exitY=1;entryX=0.65;entryY=0;rounded=0;" edge="1" parent="1" source="Jy0EAikK4nVlXM4b6_sr-1" target="Jy0EAikK4nVlXM4b6_sr-85">
          <mxGeometry relative="1" as="geometry">
            <Array as="points">
              <mxPoint x="462" y="402" />
            </Array>
          </mxGeometry>
        </mxCell>
        <mxCell id="Jy0EAikK4nVlXM4b6_sr-147" value="has results" style="curved=1;startArrow=ERmandOne;startSize=10;;endArrow=ERoneToMany;endSize=10;;exitX=0.5;exitY=1;entryX=0.2;entryY=0;rounded=0;" edge="1" parent="1" source="Jy0EAikK4nVlXM4b6_sr-85" target="Jy0EAikK4nVlXM4b6_sr-106">
          <mxGeometry relative="1" as="geometry">
            <Array as="points">
              <mxPoint x="412" y="614" />
            </Array>
          </mxGeometry>
        </mxCell>
        <mxCell id="Jy0EAikK4nVlXM4b6_sr-148" value="tracks results" style="curved=1;startArrow=ERmandOne;startSize=10;;endArrow=ERoneToMany;endSize=10;;exitX=0.99;exitY=0.83;entryX=0.95;entryY=0;rounded=0;" edge="1" parent="1" source="Jy0EAikK4nVlXM4b6_sr-1" target="Jy0EAikK4nVlXM4b6_sr-106">
          <mxGeometry relative="1" as="geometry">
            <Array as="points">
              <mxPoint x="662" y="402" />
              <mxPoint x="662" y="614" />
            </Array>
          </mxGeometry>
        </mxCell>
      </root>
    </mxGraphModel>
  </diagram>
</mxfile>
